# xmcd CD database file
#
# Track frame offsets:
#	150
#	24623
#	51394
#	73494
#	95806
#	119363
#	146281
#	176137
#
# Disc length: 2597 seconds
#
# Revision: 0
# Processed by: cddbd v1.5.2PL0 Copyright (c) Steve Scherf et al.
# Submitted via: CDex 1.91
#
DISCID=7c0a2308
DTITLE=Kenny G and Rahul Sharma - Kid Tricky Remixes
DYEAR=2012
DGENRE=Jazz
TTITLE0=Namaste
TTITLE1=Brhama-Vishnu-Shiva
TTITLE2=Dance Of The Elephant God
TTITLE3=Lotus Lovers
TTITLE4=Transcendental Conciousness
TTITLE5=Valley Of Flowers
TTITLE6=Silsila
TTITLE7=Om Shanty
EXTD=YEAR: 2012
EXTT0=
EXTT1=
EXTT2=
EXTT3=
EXTT4=
EXTT5=
EXTT6=
EXTT7=
PLAYORDER=
